<svg width="207" height="206" fill="none" xmlns="http://www.w3.org/2000/svg"><path d="M94.21 195.209c.086-1.1.786-1.831 2.206-1.719l2.01.159-.294 3.716-2.01-.159c-1.42-.112-2-.88-1.913-1.997Zm5.623 3.783.876-11.085-1.818-.144-.35 4.434-1.388-.11-2.202-4.635-2.17-.172 2.381 4.811c-1.903.315-2.715 1.663-2.819 2.971-.142 1.802 1.03 3.42 3.662 3.627l3.828.303Zm-17.263-6.179c-1.325-.305-2.176-1.387-1.902-2.72l4.755 1.095c-.499 1.314-1.652 1.902-2.853 1.625Zm-2.946-5.603 1.918.441c.482-.595 1.212-.985 2.303-.734 1.31.302 2.126 1.393 1.924 2.84l-6.564-1.511a5.585 5.585 0 0 0-.263.859c-.582 2.526.758 4.624 3.205 5.187 2.542.585 4.687-.743 5.308-3.441.62-2.697-.801-4.863-3.265-5.431-2.105-.484-3.738.404-4.566 1.79Zm-4.521.446c.993-2.532-.037-4.947-2.167-5.782-1.37-.538-2.61-.268-3.406.228l.479-1.222-1.713-.671-3.219 8.207 1.713.672.468-1.192c.243.869.94 1.898 2.325 2.442 2.16.847 4.527-.15 5.52-2.682Zm-6.706-2.664c.695-1.773 2.293-2.298 3.574-1.795 1.266.496 2.084 2.003 1.39 3.775-.696 1.773-2.291 2.247-3.557 1.751-1.282-.503-2.097-1.974-1.407-3.731Zm-4.159-6.951-1.603-.87-5.65 10.405 1.604.871 5.649-10.406Zm-25.351-4.315 4.673 3.99 7.23-8.47-4.673-3.989-.966 1.132 3.286 2.805-2.213 2.592-2.92-2.494-.967 1.132 2.92 2.493-2.118 2.483-3.286-2.805-.966 1.131Zm-2.653-15.378c-2.306 2.197 1.754 5.239.432 6.425-.44.395-1.08.281-1.732-.445-.662-.739-.664-1.532-.135-2.093l-1.218-1.358c-1.246 1.247-1.169 2.939.167 4.428 1.388 1.549 3.11 1.767 4.158.827 2.407-2.157-1.75-5.307-.464-6.461.453-.406 1.16-.288 1.865.498.673.751.692 1.658.199 2.187l1.26 1.405c1.138-1.127 1.074-3.068-.336-4.641-1.389-1.548-3.088-1.766-4.196-.772Zm-3.194-4.325c1.466-1.03 1.442-2.205.541-3.489l-.827-1.178-1.244.873.643.917c.442.628.366.994-.17 1.371l-3.995 2.804-1.232-1.755-1.217.855 1.232 1.755-1.794 1.26 1.057 1.506 1.794-1.26.597.851 1.218-.855-.597-.851 3.994-2.804Zm-6.329-5.911c2.408-1.265 3.21-3.765 2.146-5.79-.685-1.303-1.8-1.911-2.725-2.057l1.161-.61-.856-1.629-7.804 4.1.855 1.629 1.134-.595c-.385.816-.532 2.05.16 3.367 1.08 2.054 3.521 2.85 5.93 1.585Zm-3.327-6.403c1.685-.886 3.237-.237 3.877.981.632 1.204.265 2.879-1.42 3.765-1.686.885-3.203.2-3.835-1.004-.64-1.218-.294-2.864 1.378-3.742Zm-.991-7.377c1.68-.623 1.956-1.766 1.41-3.236l-.5-1.351-1.426.529.39 1.05c.267.72.101 1.055-.514 1.283l-4.575 1.698-.746-2.01-1.395.517.746 2.01-2.055.763.64 1.725 2.055-.763.362.975 1.395-.517-.362-.975 4.575-1.698Zm-8.489-10.847c-.312-1.324.283-2.566 1.599-2.909l1.12 4.75c-1.399.132-2.436-.642-2.719-1.841Zm3.724-5.12.452 1.915c.747.17 1.42.652 1.677 1.742.308 1.308-.31 2.522-1.697 2.981l-1.547-6.556c-.307.023-.59.074-.887.144-2.522.595-3.812 2.724-3.235 5.169.598 2.538 2.738 3.874 5.432 3.239 2.694-.636 4.009-2.869 3.428-5.33-.495-2.102-2.014-3.174-3.623-3.304Zm-1.732-20.439c-4.064-.025-2.532 5.873-5.044 5.857-1.072-.006-1.579-.826-1.54-1.881.039-1.152.73-1.804 1.483-1.863l.013-2.016c-1.905.148-3.034 1.645-3.048 3.773-.014 2.272 1.193 3.832 3.145 3.844 4.096.025 2.388-5.89 5.076-5.873.944.005 1.628.73 1.62 2.01-.008 1.264-.748 1.899-1.66 1.973l-.012 1.952c1.968.013 3.194-1.692 3.208-3.916.015-2.48-1.577-3.85-3.24-3.86Zm3.673-4.666.227-1.81-8.747-1.1-.227 1.81 8.747 1.1Zm-9.79-2.167a1.15 1.15 0 0 0-1.016-1.288 1.15 1.15 0 0 0-1.302.997 1.154 1.154 0 0 0 1.013 1.304 1.154 1.154 0 0 0 1.304-1.013Zm12.546-11.778.445-1.752-5.04-1.28c-2.388-.607-4.027.579-4.535 2.58-.26 1.023-.081 2.075.471 2.826l-.977-.248-.449 1.768 8.545 2.17.449-1.768-4.777-1.213c-1.566-.398-2.156-1.456-1.825-2.758.327-1.287 1.35-1.936 2.916-1.538l4.777 1.213Zm-2.202-7.498c2.553 1.068 4.898.107 5.873-2.226.834-1.992.27-3.754-1.133-4.879l-.76 1.816c.713.662.896 1.467.476 2.47-.568 1.359-1.948 1.84-3.734 1.092-1.771-.74-2.398-2.06-1.83-3.419.42-1.004 1.193-1.443 2.092-1.396l.76-1.816c-1.904-.259-3.436.627-4.27 2.62-.975 2.332-.013 4.677 2.526 5.738Zm4.913-16.857c.698-1.167 1.99-1.644 3.173-.974l-2.504 4.19c-1.096-.88-1.301-2.158-.669-3.216Zm6.238-1.08-1.01 1.69c.419.64.565 1.455-.01 2.417-.689 1.153-1.978 1.594-3.293.957l3.456-5.782a5.629 5.629 0 0 0-.736-.514c-2.225-1.33-4.633-.7-5.922 1.455-1.338 2.239-.733 4.688 1.642 6.109 2.376 1.42 4.875.733 6.172-1.437 1.108-1.854.765-3.681-.299-4.895Zm9.598-8.15 5.45-5.546-1.084-1.066-3.555 3.618c.09-2.535.569-6.103-1.452-8.088-1.495-1.469-3.452-1.508-5.112.18-1.447 1.473-1.712 3.5.047 5.318l1.233-1.255c-.902-.954-1.059-2.073-.162-2.986.953-.97 1.917-.763 2.784.089 1.632 1.603 1.11 5.15.904 8.806l.947.93Zm5.358-13.128c2.044 2.707 4.302 4.21 6.907 2.243 2.605-1.967 1.777-4.55-.267-7.257-2.006-2.655-4.263-4.158-6.868-2.191-2.605 1.967-1.777 4.55.228 7.205Zm5.21-3.934c1.379 1.826 2.392 3.567.694 4.85-1.698 1.282-3.095-.17-4.474-1.996-1.31-1.736-2.354-3.515-.655-4.797 1.698-1.283 3.123.207 4.435 1.943Zm8.784 1.195 6.826-3.723-.728-1.335-4.453 2.43c.824-2.4 2.318-5.675.962-8.162-1.004-1.84-2.866-2.446-4.944-1.312-1.812.988-2.655 2.851-1.5 5.101l1.544-.843c-.586-1.174-.41-2.29.713-2.903 1.194-.652 2.056-.174 2.638.893 1.096 2.009-.435 5.25-1.694 8.689l.636 1.165Zm10.836-5.477 7.287-2.715-.531-1.424-4.753 1.77c1.156-2.257 3.101-5.287 2.112-7.94-.732-1.965-2.488-2.83-4.707-2.003-1.934.72-3.033 2.445-2.21 4.836l1.648-.614c-.413-1.247-.08-2.326 1.119-2.773 1.274-.475 2.06.12 2.484 1.26.799 2.143-1.177 5.134-2.913 8.359l.464 1.244Zm19.427-10.439 6.53-.78-.182-1.525-6.53.78.182 1.525Zm27.362-2.727c-.136 1.095-.868 1.794-2.281 1.619l-2.001-.25.46-3.699 2 .249c1.414.176 1.96.97 1.822 2.08ZM112.4 7.189l-1.371 11.035 1.81.225.549-4.414 1.381.171 1.992 4.73 2.159.269-2.163-4.913c1.915-.23 2.788-1.54 2.95-2.842.222-1.794-.876-3.462-3.496-3.788L112.4 7.19Zm16.969 6.945c1.311.364 2.112 1.484 1.779 2.803l-4.702-1.307c.558-1.29 1.736-1.826 2.923-1.496Zm2.692 5.73-1.896-.527c-.508.573-1.255.93-2.334.63-1.295-.36-2.061-1.486-1.795-2.923l6.49 1.804a5.55 5.55 0 0 0 .302-.846c.694-2.498-.55-4.654-2.97-5.326-2.513-.699-4.715.533-5.456 3.2-.742 2.667.582 4.894 3.018 5.571 2.081.579 3.752-.236 4.641-1.583Zm4.537-.244c-1.105 2.486-.185 4.944 1.906 5.874 1.344.598 2.595.384 3.413-.075l-.533 1.198 1.681.748 3.583-8.055-1.682-.748-.52 1.17c-.204-.88-.854-1.938-2.213-2.543-2.12-.943-4.53-.053-5.635 2.432Zm6.58 2.963c-.774 1.74-2.393 2.192-3.651 1.633-1.242-.553-1.992-2.095-1.219-3.834.774-1.74 2.389-2.143 3.632-1.59 1.257.56 2.005 2.066 1.238 3.79Zm3.844 7.129 1.562.941 6.109-10.142-1.562-.94-6.109 10.141Zm25.132 5.445-4.489-4.194-7.603 8.137 4.49 4.195 1.016-1.088-3.157-2.949 2.326-2.49 2.806 2.621 1.016-1.087-2.806-2.621 2.229-2.385 3.156 2.949 1.016-1.088Zm1.962 15.483c2.402-2.092-1.518-5.313-.144-6.439.458-.375 1.092-.232 1.71.523.629.767.595 1.56.042 2.096l1.156 1.411c1.3-1.19 1.298-2.884.031-4.43-1.318-1.61-3.028-1.905-4.117-1.013-2.501 2.048 1.511 5.38.174 6.475-.47.385-1.172.236-1.841-.581-.639-.78-.617-1.687-.1-2.193l-1.196-1.46c-1.187 1.075-1.21 3.017.128 4.651 1.318 1.61 3.006 1.902 4.157.96Zm2.997 4.463c-1.511.963-1.54 2.138-.697 3.46l.774 1.215 1.282-.817-.602-.944c-.413-.648-.321-1.01.232-1.362l4.116-2.623 1.152 1.808 1.255-.8-1.152-1.807 1.848-1.178-.989-1.552-1.848 1.178-.559-.877-1.255.8.559.876-4.116 2.623Zm6.058 6.188c-2.462 1.156-3.375 3.618-2.403 5.689.626 1.332 1.712 1.989 2.631 2.176l-1.188.558.782 1.665 7.98-3.746-.782-1.666-1.158.544c.42-.798.622-2.024-.01-3.371-.986-2.1-3.39-3.004-5.852-1.849Zm3.037 6.546c-1.723.81-3.244.092-3.829-1.154-.578-1.231-.136-2.888 1.587-3.697 1.724-.809 3.208-.056 3.786 1.175.585 1.245.165 2.874-1.544 3.676Zm.66 7.413c-1.707.548-2.033 1.678-1.554 3.17l.44 1.372 1.447-.464-.342-1.067c-.235-.731-.054-1.058.571-1.258l4.646-1.491.656 2.041 1.416-.455-.655-2.041 2.087-.67-.562-1.752-2.087.67-.318-.99-1.417.454.318.99-4.646 1.492Zm7.995 11.217c.252 1.337-.397 2.55-1.728 2.835l-.906-4.796c1.403-.07 2.405.75 2.634 1.961Zm-3.95 4.948-.365-1.934c-.739-.202-1.389-.714-1.597-1.814-.25-1.321.421-2.507 1.828-2.903l1.252 6.619c.307-.01.593-.047.892-.104 2.547-.481 3.931-2.55 3.464-5.019-.485-2.562-2.563-3.993-5.282-3.479-2.72.514-4.133 2.687-3.664 5.17.402 2.123 1.871 3.262 3.472 3.464Zm.815 20.496c4.059.207 2.793-5.753 5.301-5.625 1.071.054 1.541.895 1.455 1.948-.09 1.149-.811 1.769-1.565 1.795l-.103 2.013c1.91-.063 3.105-1.508 3.213-3.633.116-2.269-1.02-3.881-2.969-3.98-4.091-.209-2.65 5.777-5.334 5.64-.943-.048-1.593-.802-1.528-2.081.064-1.262.832-1.864 1.747-1.897l.099-1.95c-1.965-.1-3.267 1.548-3.38 3.769-.126 2.477 1.402 3.916 3.064 4.001Zm-3.878 4.498-.308 1.798 8.689 1.49.309-1.798-8.69-1.49Zm9.684 2.602c-.108.631.31 1.222.957 1.333a1.15 1.15 0 0 0 1.345-.938 1.154 1.154 0 0 0-.953-1.349 1.155 1.155 0 0 0-1.349.954Zm-13.061 11.205-.523 1.731 4.978 1.504c2.358.713 4.048-.398 4.645-2.374.305-1.011.174-2.07-.344-2.845l.965.292.528-1.746-8.439-2.551-.528 1.746 4.717 1.426c1.547.467 2.089 1.55 1.7 2.837-.384 1.271-1.435 1.873-2.982 1.405l-4.717-1.425Zm1.864 7.588c-2.503-1.181-4.888-.325-5.967 1.961-.922 1.954-.438 3.739.913 4.925l.84-1.78c-.681-.693-.829-1.505-.364-2.489.628-1.331 2.028-1.75 3.779-.924 1.737.82 2.304 2.167 1.676 3.498-.464.984-1.257 1.388-2.153 1.301l-.84 1.78c1.89.344 3.46-.472 4.382-2.426 1.079-2.286.223-4.671-2.266-5.846Zm-5.663 16.621c-.749 1.135-2.061 1.553-3.214.831l2.689-4.073c1.056.927 1.204 2.214.525 3.242Zm-6.28.8 1.084-1.643c-.389-.659-.499-1.48.118-2.414.741-1.122 2.048-1.505 3.334-.809l-3.712 5.621c.227.207.459.38.713.547 2.163 1.428 4.597.907 5.981-1.189 1.437-2.176.942-4.651-1.368-6.176-2.31-1.525-4.837-.95-6.229 1.159-1.191 1.803-.93 3.643.079 4.904Zm-9.953 7.711-5.693 5.298 1.036 1.112 3.713-3.455c-.205 2.529-.842 6.072 1.088 8.145 1.428 1.535 3.382 1.662 5.115.048 1.511-1.406 1.867-3.419.191-5.314l-1.288 1.199c.858.994.965 2.118.028 2.99-.995.927-1.949.677-2.777-.213-1.559-1.675-.877-5.194-.509-8.837l-.904-.973Zm-5.941 12.875c-1.921-2.795-4.109-4.398-6.799-2.549-2.69 1.848-1.979 4.465-.058 7.261 1.884 2.743 4.073 4.345 6.763 2.497 2.69-1.848 1.979-4.466.094-7.209Zm-5.38 3.697c-1.296-1.886-2.231-3.67-.477-4.875s3.085.307 4.38 2.193c1.233 1.794 2.194 3.618.441 4.823-1.754 1.205-3.112-.347-4.344-2.141Zm-8.721-1.587-6.987 3.414.668 1.366 4.557-2.227c-.931 2.36-2.57 5.565-1.326 8.11.92 1.883 2.753 2.572 4.88 1.532 1.855-.906 2.78-2.729 1.728-5.029l-1.582.773c.533 1.2.308 2.307-.842 2.869-1.221.597-2.061.081-2.595-1.011-1.005-2.056.67-5.225 2.082-8.604l-.583-1.193Zm-11.071 4.987-7.401 2.386.466 1.447 4.827-1.557c-1.256 2.204-3.334 5.144-2.465 7.839.643 1.995 2.359 2.938 4.613 2.211 1.964-.633 3.14-2.306 2.425-4.732l-1.675.54c.357 1.263-.023 2.327-1.241 2.72-1.295.417-2.053-.212-2.426-1.37-.702-2.177 1.406-5.076 3.284-8.22l-.407-1.264Zm-19.875 9.559-6.558.487.113 1.532 6.558-.487-.113-1.532Z" fill="#4361EE"/></svg>