<svg width="86" height="14" fill="none" xmlns="http://www.w3.org/2000/svg"><path d="M13.941 5.043a1.182 1.182 0 0 0-.938-.805l-3.38-.549L8.054.644a1.187 1.187 0 0 0-2.11 0L4.376 3.689l-3.38.55a1.187 1.187 0 0 0-.653 2.007l2.412 2.431-.522 3.385a1.186 1.186 0 0 0 1.708 1.241L7 11.76l3.057 1.543a1.187 1.187 0 0 0 1.708-1.24l-.522-3.386 2.412-2.431a1.182 1.182 0 0 0 .286-1.203Zm18 0a1.182 1.182 0 0 0-.938-.805l-3.38-.549L26.054.644a1.188 1.188 0 0 0-2.11 0l-1.568 3.045-3.38.55a1.187 1.187 0 0 0-.653 2.007l2.412 2.431-.522 3.385a1.186 1.186 0 0 0 1.708 1.241L25 11.76l3.058 1.543a1.187 1.187 0 0 0 1.707-1.24l-.522-3.386 2.412-2.431a1.182 1.182 0 0 0 .286-1.203Zm18 0a1.182 1.182 0 0 0-.938-.805l-3.38-.549L44.054.644a1.188 1.188 0 0 0-2.11 0l-1.568 3.045-3.38.55a1.187 1.187 0 0 0-.653 2.007l2.412 2.431-.522 3.385a1.186 1.186 0 0 0 1.708 1.241L43 11.76l3.057 1.543a1.187 1.187 0 0 0 1.708-1.24l-.522-3.386 2.412-2.431a1.182 1.182 0 0 0 .286-1.203Zm18 0a1.182 1.182 0 0 0-.938-.805l-3.38-.549L62.054.644a1.188 1.188 0 0 0-2.11 0l-1.568 3.045-3.38.55a1.187 1.187 0 0 0-.653 2.007l2.412 2.431-.522 3.385a1.186 1.186 0 0 0 1.708 1.241L61 11.76l3.058 1.543a1.187 1.187 0 0 0 1.707-1.24l-.522-3.386 2.412-2.431a1.182 1.182 0 0 0 .286-1.203Z" fill="#FFC700"/><path d="M85.941 5.043a1.182 1.182 0 0 0-.938-.805l-3.38-.549L80.054.644a1.188 1.188 0 0 0-2.11 0l-1.568 3.045-3.38.55a1.187 1.187 0 0 0-.653 2.007l2.412 2.431-.522 3.385a1.186 1.186 0 0 0 1.708 1.241L79 11.76l3.058 1.543a1.187 1.187 0 0 0 1.707-1.24l-.522-3.386 2.412-2.431a1.182 1.182 0 0 0 .286-1.203Z" fill="#D4D4D4"/></svg>