<?xml version="1.0" encoding="utf-8"?><svg viewBox="0 0 50 50" xmlns="http://www.w3.org/2000/svg" xmlns:xlink="http://www.w3.org/1999/xlink"><style>:root>svg{display:none}:root>svg:target{display:block}</style><svg viewBox="0 0 32 32" id="arrowLeft" xmlns="http://www.w3.org/2000/svg"><path d="M20 25a1 1 0 0 1-.71-.29l-8-8a1 1 0 0 1 0-1.42l8-8a1 1 0 1 1 1.42 1.42L13.41 16l7.3 7.29a1 1 0 0 1 0 1.42A1 1 0 0 1 20 25Z"/></svg><svg viewBox="0 0 32 32" id="arrowRight" xmlns="http://www.w3.org/2000/svg"><path d="M12 25a1 1 0 0 1-.71-.29 1 1 0 0 1 0-1.42l7.3-7.29-7.3-7.29a1 1 0 1 1 1.42-1.42l8 8a1 1 0 0 1 0 1.42l-8 8A1 1 0 0 1 12 25Z"/></svg><svg viewBox="0 0 24 24" id="bath" xmlns="http://www.w3.org/2000/svg"><path d="M22.4 13.26H3.2v-9a2.563 2.563 0 0 1 .756-1.825l.02-.02a2.585 2.585 0 0 1 2.93-.508 3.955 3.955 0 0 0 .589 4.832l.547.547-1.008 1.008 1.132 1.131 1.007-1.007 5.585-5.585 1.008-1.008L14.634.694l-1.008 1.008-.547-.548A3.954 3.954 0 0 0 8.032.705a4.18 4.18 0 0 0-5.188.579l-.02.02A4.153 4.153 0 0 0 1.6 4.26v9H0v1.6h1.6v1.535c0 .129.02.257.062.38l1.488 4.464a1.199 1.199 0 0 0 1.138.82h.645l-.583 2h1.667l.583-2h10.405l.6 2h1.67l-.6-2h1.037a1.198 1.198 0 0 0 1.138-.82l1.488-4.465a1.2 1.2 0 0 0 .062-.38V14.86H24v-1.6h-1.6ZM8.626 2.286a2.351 2.351 0 0 1 3.322 0l.547.547-3.321 3.322-.548-.548a2.351 2.351 0 0 1 0-3.321ZM20.8 16.33l-1.377 4.13H4.577L3.2 16.33v-1.47h17.6v1.47Z"/></svg><svg viewBox="0 0 30 22" id="bed" xmlns="http://www.w3.org/2000/svg"><path d="M25 4.5H12v7.539h-1.385V9.476A5.482 5.482 0 0 0 5.14 4H2V0H0v21.5h2v-2.984l26 .208V21.5h2v-12a5.006 5.006 0 0 0-5-5ZM2 6h3.14a3.48 3.48 0 0 1 3.475 3.476v2.563H2V6Zm26 10.724-26-.208v-2.477h26v2.685Zm0-4.685H14V6.5h11a3.003 3.003 0 0 1 3 3v2.539Z"/></svg><svg viewBox="0 0 14 23" id="discount" xmlns="http://www.w3.org/2000/svg"><path d="M9.03 9.838H4.97a1.846 1.846 0 1 1 0-3.691h6.996V3.523H8.515V.5H5.891v3.023H4.97a4.47 4.47 0 0 0 0 8.94h4.06a1.849 1.849 0 0 1 1.846 1.846v.18a1.848 1.848 0 0 1-1.846 1.846H1.658v2.624H5.89V21.8h2.624v-2.842h.515a4.475 4.475 0 0 0 4.47-4.47v-.181a4.474 4.474 0 0 0-4.47-4.47Z"/></svg><svg viewBox="0 0 42 44" id="home" xmlns="http://www.w3.org/2000/svg"><path d="M40.077 18.114 22.347 1.802a3.036 3.036 0 0 0-4.203.087L1.837 18.197 1 19.033v24.041h15.714v-15h8.572v15H41v-24.11l-.923-.85ZM20.29 3.857c.025 0 .01.006-.001.016-.011-.01-.024-.016.001-.016Zm17.854 36.36h-10V28.074a2.857 2.857 0 0 0-2.857-2.857h-8.572a2.857 2.857 0 0 0-2.857 2.857v12.143h-10v-20L20.29 3.909l.002-.003 17.852 16.31v20Z"/></svg><svg viewBox="0 0 20 20" id="houseLogo" xmlns="http://www.w3.org/2000/svg"><g clip-path="url(#ga)"><path d="m19.762 7.638-9.375-7.5a.625.625 0 0 0-.78 0L.23 7.638A.625.625 0 0 0 .625 8.75h1.25v10.625A.625.625 0 0 0 2.5 20H15v-1.25h-2.5v-5.625a.625.625 0 0 0-.625-.625h-3.75a.625.625 0 0 0-.625.625v5.625H3.125v-10H13.75V7.5H2.406L10 1.425 17.594 7.5H17.5a.625.625 0 0 0-.625.625v3.75h1.25V8.75h1.25a.625.625 0 0 0 .387-1.112ZM8.75 13.75h2.5v5h-2.5v-5Z"/><path d="m15.625 16.619-.806-.806-.882.88 1.25 1.25a.625.625 0 0 0 .882 0l3.75-3.75-.881-.88-3.313 3.306Z"/></g><defs><clipPath id="ga"><path d="M0 0h20v20H0z"/></clipPath></defs></svg><svg viewBox="0 0 18 13" id="mail" xmlns="http://www.w3.org/2000/svg"><g stroke-width="1.2"><path d="M5 4.2 9 7l4-2.8"/><path d="M1 10.6v-8A1.6 1.6 0 0 1 2.6 1h12.8A1.6 1.6 0 0 1 17 2.6v8a1.6 1.6 0 0 1-1.6 1.6H2.6A1.6 1.6 0 0 1 1 10.6Z"/></g></svg><svg viewBox="0 0 20 22" id="newListing" xmlns="http://www.w3.org/2000/svg"><path d="M19.539 8.557 10.673.401a1.518 1.518 0 0 0-2.1.044L.417 8.598 0 9.017v12.02h7.857v-7.5h4.286v7.5H20V8.982l-.461-.425Z"/></svg><svg viewBox="0 0 16 16" id="phone" xmlns="http://www.w3.org/2000/svg"><path d="m15.543 1.663-.027-.017L12.175 0 8.569 4.808l1.659 2.213a3.416 3.416 0 0 1-3.207 3.207l-2.213-1.66L0 12.176l1.632 3.313.014.028.017.027a.968.968 0 0 0 .825.457h.862A12.65 12.65 0 0 0 16 3.35v-.862a.968.968 0 0 0-.457-.825Zm-.778 1.687c0 6.295-5.12 11.415-11.415 11.415h-.697L1.56 12.548l3.249-2.436 1.808 1.356h.206a4.651 4.651 0 0 0 4.645-4.646v-.205l-1.356-1.809 2.436-3.248 2.217 1.093v.697Z"/></svg><svg viewBox="0 0 14 18" id="pin" xmlns="http://www.w3.org/2000/svg"><g stroke-width="1.2"><path d="M13 7.4c0 3.535-6 9.6-6 9.6s-6-6.065-6-9.6C1 3.865 3.686 1 7 1s6 2.865 6 6.4Z"/><path d="M7 8.2c.414 0 .75-.358.75-.8 0-.442-.336-.8-.75-.8s-.75.358-.75.8c0 .442.336.8.75.8Z"/></g></svg><svg viewBox="0 0 20 23" id="popular" xmlns="http://www.w3.org/2000/svg"><path d="M12.408 11.253c.26-.427.527-.867.793-1.322.887-1.52 1.05-3.053.484-4.554-1.142-3.03-4.96-4.875-5.843-5.17L7.221 0l-.97 1.94.468.382c.005.005.525.459.56 1.147.03.588-.293 1.223-.958 1.888-.462.462-.968.908-1.505 1.381C2.56 8.726 0 10.98 0 15.244a7.145 7.145 0 0 0 2.194 5.201 7.277 7.277 0 0 0 5.09 2.06h4.347l-.537-1.088c-2.18-4.426-.638-6.958 1.314-10.164Z"/><path d="m19.823 15.195-.04-.15c-.545-1.998-3.561-4.567-3.903-4.854l-.688-.575-.45.775c-1.027 1.765-1.908 3.375-2.292 5.202-.438 2.083-.143 4.2.902 6.473l.201.44h.514a5.909 5.909 0 0 0 4.687-2.29 5.814 5.814 0 0 0 1.069-5.02Z"/></svg><svg viewBox="0 0 42 42" id="search" xmlns="http://www.w3.org/2000/svg"><path d="m39.633 32.976-6.757-6.757-5.197-2.147a14.584 14.584 0 0 0 2.654-8.405C30.333 7.579 23.753 1 15.667 1 7.579 1 1 7.58 1 15.667s6.58 14.666 14.667 14.666c3.034.004 5.995-.94 8.468-2.698l2.141 5.183 6.757 6.758a4.665 4.665 0 0 0 7.612-1.514 4.668 4.668 0 0 0-1.012-5.086ZM3.667 15.666c0-6.616 5.383-12 12-12 6.616 0 12 5.384 12 12 0 6.617-5.384 12-12 12-6.617 0-12-5.383-12-12Zm34.08 22.024a2.002 2.002 0 0 1-2.828 0l-6.381-6.38-1.991-4.82 4.82 1.99 6.38 6.382a2.003 2.003 0 0 1 0 2.828Z"/></svg><svg viewBox="0 0 20 21" id="searchNormal" xmlns="http://www.w3.org/2000/svg"><path d="M9.536 19.072C4.279 19.072 0 14.792 0 9.536 0 4.279 4.28 0 9.536 0c5.256 0 9.536 4.28 9.536 9.536 0 5.256-4.28 9.536-9.536 9.536Zm0-17.677c-4.494 0-8.14 3.657-8.14 8.14 0 4.485 3.646 8.141 8.14 8.141 4.493 0 8.14-3.656 8.14-8.14s-3.647-8.14-8.14-8.14Zm9.769 18.607a.69.69 0 0 1-.494-.205l-1.86-1.86a.702.702 0 0 1 0-.987c.27-.27.716-.27.986 0l1.86 1.861c.27.27.27.716 0 .986a.69.69 0 0 1-.492.205Z"/></svg><svg viewBox="0 0 14 14" id="settings" xmlns="http://www.w3.org/2000/svg"><path d="M12.026 14c-.295 0-.539-.221-.539-.488V6.349c0-.267.244-.489.539-.489.294 0 .538.222.538.489v7.163c0 .267-.244.488-.538.488Zm0-9.767c-.295 0-.539-.222-.539-.489V.488c0-.267.244-.488.539-.488.294 0 .538.221.538.488v3.256c0 .267-.244.489-.538.489ZM7 14c-.294 0-.538-.221-.538-.488v-3.256c0-.267.244-.489.538-.489.294 0 .538.222.538.489v3.256c0 .267-.244.488-.538.488Zm0-5.86c-.294 0-.538-.222-.538-.489V.488C6.462.221 6.706 0 7 0c.294 0 .538.221.538.488v7.163c0 .267-.244.489-.538.489ZM1.974 14c-.294 0-.538-.221-.538-.488V6.349c0-.267.244-.489.538-.489.295 0 .539.222.539.489v7.163c0 .267-.244.488-.539.488Zm0-9.767c-.294 0-.538-.222-.538-.489V.488c0-.267.244-.488.538-.488.295 0 .539.221.539.488v3.256c0 .267-.244.489-.539.489Z"/><path d="M3.41 6.837H.538C.244 6.837 0 6.616 0 6.35s.244-.489.538-.489H3.41c.295 0 .539.222.539.489s-.244.488-.539.488Zm10.051 0H10.59c-.295 0-.539-.221-.539-.488s.244-.489.539-.489h2.871c.295 0 .539.222.539.489s-.244.488-.539.488ZM8.436 8.14H5.564c-.294 0-.538-.222-.538-.489s.244-.488.538-.488h2.872c.294 0 .538.221.538.488s-.244.489-.538.489Z"/></svg><svg viewBox="0 0 40 40" id="smartHome" xmlns="http://www.w3.org/2000/svg"><path d="M30.531 38.883H19.128a1.39 1.39 0 0 1-1.38-1.38c0-.754.626-1.38 1.38-1.38H30.53c1.968 0 3.9-1.636 4.23-3.586l2.446-14.64c.221-1.324-.514-3.219-1.544-4.046L22.917 3.66c-1.472-1.177-3.918-1.177-5.371-.018L4.8 13.85c-1.048.845-1.766 2.722-1.545 4.046l.515 3.108a1.365 1.365 0 0 1-1.14 1.582c-.754.147-1.453-.386-1.582-1.14l-.515-3.09c-.386-2.28.717-5.205 2.538-6.658L15.817 1.49c2.465-1.987 6.345-1.968 8.828.018L37.391 11.7c1.803 1.453 2.906 4.377 2.538 6.658l-2.446 14.64c-.551 3.255-3.66 5.886-6.952 5.886Zm-23.174.349a1.382 1.382 0 0 1-1.38-1.342c-.054-2.483-1.691-4.12-4.174-4.175A1.378 1.378 0 0 1 .46 32.297a1.37 1.37 0 0 1 1.38-1.342h.036c3.955.092 6.787 2.906 6.86 6.86a1.39 1.39 0 0 1-1.342 1.416h-.037Z"/><path d="M12.875 39.232c-.754 0-1.38-.607-1.38-1.36a11.269 11.269 0 0 0-.588-3.459c-.938-2.685-2.943-4.671-5.628-5.628a10.266 10.266 0 0 0-3.458-.588c-.754 0-1.38-.625-1.36-1.398 0-.754.625-1.361 1.379-1.361h.018c1.527.018 2.98.276 4.34.754 3.477 1.232 6.07 3.826 7.302 7.302.479 1.36.736 2.832.755 4.34 0 .773-.607 1.398-1.38 1.398Zm-11.035.46c-1.03 0-1.84-.828-1.84-1.84 0-1.01.828-1.838 1.84-1.838 1.01 0 1.838.827 1.838 1.839 0 1.011-.809 1.84-1.839 1.84Z"/></svg><svg viewBox="0 0 50 50" id="tesNext" xmlns="http://www.w3.org/2000/svg"><circle cx="25" cy="25" r="24.5"/><path d="M15 24a1 1 0 1 0 0 2v-2Zm20.707 1.707a1 1 0 0 0 0-1.414l-6.364-6.364a1 1 0 0 0-1.414 1.414L33.586 25l-5.657 5.657a1 1 0 0 0 1.414 1.414l6.364-6.364ZM15 26h20v-2H15v2Z"/></svg><svg viewBox="0 0 50 50" id="tesPrev" xmlns="http://www.w3.org/2000/svg"><circle cx="25" cy="25" r="24.5" transform="rotate(180 25 25)"/><path d="M35 26a1 1 0 1 0 0-2v2Zm-20.707-1.707a1 1 0 0 0 0 1.414l6.364 6.364a1 1 0 0 0 1.414-1.414L16.414 25l5.657-5.657a1 1 0 0 0-1.414-1.414l-6.364 6.364ZM35 24H15v2h20v-2Z"/></svg><svg viewBox="0 0 20 20" id="userCircle" xmlns="http://www.w3.org/2000/svg"><g stroke-width="1.6"><path d="M5.5 14.5a4.5 4.5 0 1 1 9 0"/><path d="M10 10a2.7 2.7 0 1 0 0-5.4 2.7 2.7 0 0 0 0 5.4Z"/><path d="M10 19a9 9 0 1 0 0-18 9 9 0 0 0 0 18Z"/></g></svg><svg viewBox="0 0 44 48" id="userOctagon" xmlns="http://www.w3.org/2000/svg"><g stroke-width="3" stroke-linecap="round" stroke-linejoin="round"><path d="M42 16.496v15.058a6.987 6.987 0 0 1-3.456 6.01l-13.077 7.55a6.963 6.963 0 0 1-6.934 0l-13.077-7.55A6.933 6.933 0 0 1 2 31.553V16.495a6.987 6.987 0 0 1 3.456-6.01l13.077-7.551a6.963 6.963 0 0 1 6.934 0l13.077 7.55A6.96 6.96 0 0 1 42 16.496Z"/><path d="M22.011 21.823a5.13 5.13 0 1 0 0-10.258 5.13 5.13 0 0 0 0 10.258Zm8.806 12.461c0-3.963-3.94-7.177-8.806-7.177-4.865 0-8.806 3.214-8.806 7.177"/></g></svg></svg>